HIERARCHY
ROOT Hips
{
	OFFSET 0.00000 0.00000 0.00000
	CHANNELS 6 Xposition Yposition Zposition Zrotation Yrotation Xrotation 
	JOINT LHipJoint
	{
		OFFSET 0 0 0
		CHANNELS 3 Zrotation Yrotation Xrotation
		JOINT LeftHip
		{
			OFFSET 1.61328 -1.70571 0.84375
			CHANNELS 3 Zrotation Yrotation Xrotation
			JOINT LeftKnee
			{
				OFFSET 2.32400 -6.38513 0.00000
				CHANNELS 3 Zrotation Yrotation Xrotation
				JOINT LeftAnkle
				{
					OFFSET 2.58843 -7.11166 0.00000
					CHANNELS 3 Zrotation Yrotation Xrotation
					JOINT LeftToe
					{
						OFFSET 0.17200 -0.47257 2.47970
						CHANNELS 3 Zrotation Yrotation Xrotation
						End Site
						{
							OFFSET 0.00000 -0.00000 1.26912
						}
					}
				}
			}
		}
	}
	JOINT RHipJoint
	{
		OFFSET 0 0 0
		CHANNELS 3 Zrotation Yrotation Xrotation
		JOINT RightHip
		{
			OFFSET -1.49930 -1.70570 0.84375
			CHANNELS 3 Zrotation Yrotation Xrotation
			JOINT RightKnee
			{
				OFFSET -2.30458 -6.33178 0.00000
				CHANNELS 3 Zrotation Yrotation Xrotation
				JOINT RightAnkle
				{
					OFFSET -2.62261 -7.20556 0.00000
					CHANNELS 3 Zrotation Yrotation Xrotation
					JOINT RightToe
					{
						OFFSET -0.18709 -0.51403 2.51340
						CHANNELS 3 Zrotation Yrotation Xrotation
						End Site
						{
							OFFSET -0.00000 -0.00000 1.28858
						}
					}
				}
			}
		}
	}
	JOINT lowerback
	{
		OFFSET 0 0 0
		CHANNELS 3 Zrotation Yrotation Xrotation
		JOINT Chest
		{
			OFFSET -0.03798 2.19274 -0.19881
			CHANNELS 3 Zrotation Yrotation Xrotation
			JOINT Chest2
			{
				OFFSET -0.00024 2.19460 0.05248
				CHANNELS 3 Zrotation Yrotation Xrotation
				JOINT lowerneck
				{
					OFFSET 0 0 0
					CHANNELS 3 Zrotation Yrotation Xrotation
					JOINT Neck
					{
						OFFSET -0.00746 1.82323 0.17286
						CHANNELS 3 Zrotation Yrotation Xrotation
						JOINT Head
						{
							OFFSET 0.11826 1.82121 -0.27841
							CHANNELS 3 Zrotation Yrotation Xrotation
							End Site
							{
								OFFSET 0.03496 1.85543 -0.11495
							}
						}
					}
				}
				JOINT LeftCollar
				{
					OFFSET 0 0 0
					CHANNELS 3 Zrotation Yrotation Xrotation
					JOINT LeftShoulder
					{
						OFFSET 3.71926 0.78840 0.25473
CHANNELS 3 Zrotation Xrotation Yrotation
						JOINT LeftElbow
						{
OFFSET 0 -5.375870 0.000000
CHANNELS 3 Zrotation Xrotation Yrotation
							JOINT LeftWrist
							{
OFFSET 0 -3.359770 0.000000
CHANNELS 3 Zrotation Xrotation Yrotation
								JOINT lhand
								{
									OFFSET 0 0 0
CHANNELS 3 Zrotation Xrotation Yrotation
									JOINT LFingers
									{
OFFSET 0 -0.561860 0.000000
CHANNELS 3 Zrotation Xrotation Yrotation
										End Site
										{
OFFSET 0 -0.452990 0.000000
										}
									}
								}
								JOINT LThumb
								{
OFFSET 0 0.000000 0.000000
CHANNELS 3 Zrotation Xrotation Yrotation
									End Site
									{
OFFSET 0 -0.459900 0.459900
									}
								}
							}
						}
					}
				}
				JOINT RightCollar
				{
					OFFSET 0 0 0
					CHANNELS 3 Zrotation Yrotation Xrotation
					JOINT RightShoulder
					{
						OFFSET -3.65136 0.56074 0.01624
CHANNELS 3 Zrotation Xrotation Yrotation
						JOINT RightElbow
						{
OFFSET 0 -5.228190 0.000000
CHANNELS 3 Zrotation Xrotation Yrotation
							JOINT RightWrist
							{
OFFSET 0 -3.407640 0.000000
CHANNELS 3 Zrotation Xrotation Yrotation
								JOINT rhand
								{
									OFFSET 0 0 0
CHANNELS 3 Zrotation Xrotation Yrotation
									JOINT RFingers
									{
OFFSET 0 -0.583250 0.000000
CHANNELS 3 Zrotation Xrotation Yrotation
										End Site
										{
OFFSET 0 -0.470240 0.000000
										}
									}
								}
								JOINT RThumb
								{
OFFSET 0 0.000000 0.000000
CHANNELS 3 Zrotation Xrotation Yrotation
									End Site
									{
OFFSET 0 -0.477420 0.477420
									}
								}
							}
						}
					}
				}
			}
		}
	}
}
MOTION
Frames: 12
Frame Time: 0.008333333333333333
49.667300 16.844600 -8.450600 -5.323100 -82.623700 6.301200 0.000000 0.000000 0.000000 -16.261500 0.677900 -2.104900 0.622900 5.050600 14.053100 0.320200 2.915000 -12.165000 0.203600 -2.905500 -8.015700 0.000000 0.000000 0.000000 19.495300 2.470300 -9.660800 -2.673900 -10.147500 29.455800 -1.741300 -1.374900 -25.474500 -1.061800 -6.551500 18.393200 -0.522700 -0.648100 -2.780000 0.610100 -0.935800 4.924900 0.845600 -0.533200 6.699700 -4.524400 -3.673800 -11.280600 8.804800 -5.608000 12.595600 3.044500 -2.329200 6.049700 -0.000000 0.000000 0.000000 1.814800 -4.342500 -22.284500 13.794600 -22.440300 2.749200 19.538700 -2.592300 -16.263100 0.000000 0.000000 0.000000 -7.125000 0.000000 0.000000 -7.852800 47.025800 0.394900 -0.000000 0.000000 0.000000 -4.348800 -2.551600 17.780000 -14.416300 -23.326700 -2.991000 -20.975800 -2.630100 -5.090300 0.000000 0.000000 0.000000 7.125000 0.000000 -0.000000 4.257800 24.531000 2.111300
49.638766 16.843600 -8.452166 -9.182576 -82.738923 10.044188 0.000000 0.000000 0.000000 -15.703699 0.720151 -2.246741 0.669705 5.233419 14.575497 0.345617 2.811502 -12.499006 0.208052 -2.936830 -8.103003 0.000000 0.000000 0.000000 20.155710 3.057783 -9.075789 -2.609313 -10.033961 29.086749 -1.742257 -2.298549 -25.855841 -0.879290 -5.977880 16.720183 -0.352947 -0.603634 -2.737379 0.763344 -0.900982 5.044190 0.912955 -0.514430 6.801466 -4.522984 -3.652949 -11.255931 8.794076 -5.565224 12.450868 3.044705 -2.311762 5.996538 0.000000 0.000000 0.000000 1.751178 -4.393072 -22.383104 13.817192 -22.472809 2.757829 19.645303 -2.645100 -16.263324 0.000000 0.000000 0.000000 -7.125000 0.000000 0.000000 -7.752931 47.040680 0.392678 0.000000 0.000000 0.000000 -4.242364 -2.581367 17.816080 -14.487667 -23.427561 -3.019277 -20.607704 -3.133848 -5.108894 0.000000 0.000000 0.000000 7.125000 0.000000 0.000000 4.532596 24.524540 2.248990
49.624375 16.845004 -8.432897 -9.498437 -82.831271 10.530792 0.000000 0.000000 0.000000 -15.752502 0.693978 -2.370128 0.673051 5.246106 14.611874 0.351713 2.855714 -12.620564 0.204322 -2.910560 -8.029830 0.000000 0.000000 0.000000 20.102812 3.142242 -9.171348 -2.601914 -10.020897 29.044483 -1.736722 -2.261594 -25.800589 -0.864039 -5.927086 16.573024 -0.404824 -0.596583 -2.774977 0.747940 -0.886871 5.037821 0.926804 -0.509587 6.816704 -4.496047 -3.619197 -11.306648 8.803363 -5.527140 12.487787 3.046221 -2.289501 6.013806 0.000000 0.000000 0.000000 1.687879 -4.378513 -22.498534 13.861060 -22.535761 2.774671 19.564725 -2.729328 -16.255336 0.000000 0.000000 0.000000 -7.125000 0.000000 0.000000 -7.826450 47.021364 0.392700 0.000000 0.000000 0.000000 -4.129909 -2.568453 17.837903 -14.499739 -23.444601 -3.024062 -20.291643 -3.348632 -5.044078 0.000000 0.000000 0.000000 7.125000 0.000000 0.000000 4.769611 24.604522 2.358512
49.607002 16.846552 -8.406773 -9.565425 -83.021397 10.767865 0.000000 0.000000 0.000000 -15.891172 0.676327 -2.495250 0.681177 5.277056 14.700509 0.359129 2.974753 -12.808741 0.201527 -2.890837 -7.974897 0.000000 0.000000 0.000000 19.946835 3.224913 -9.260554 -2.593987 -10.006775 28.998821 -1.723558 -2.062080 -25.622612 -0.868121 -5.940771 16.612661 -0.483767 -0.600475 -2.871575 0.727794 -0.885302 5.035873 0.949192 -0.512144 6.871542 -4.513922 -3.532477 -11.360690 8.783522 -5.404414 12.536018 3.053793 -2.229891 6.029337 0.000000 0.000000 0.000000 1.610393 -4.329930 -22.426428 13.889733 -22.576862 2.785637 19.578137 -2.777891 -16.230762 0.000000 0.000000 0.000000 -7.125000 0.000000 0.000000 -7.807700 46.997593 0.387150 0.000000 0.000000 0.000000 -4.041673 -2.615807 17.788848 -14.463550 -23.393513 -3.009711 -20.805401 -3.321546 -5.103558 0.000000 0.000000 0.000000 7.125000 0.000000 0.000000 4.384981 24.523134 2.175452
49.595475 16.846769 -8.367064 -9.700298 -83.314244 11.020427 0.000000 0.000000 0.000000 -16.099154 0.695036 -2.650040 0.700281 5.348945 14.906579 0.368094 3.125387 -13.041118 0.198092 -2.866033 -7.905916 0.000000 0.000000 0.000000 19.696315 3.302034 -9.330978 -2.588561 -9.997222 28.967658 -1.700017 -1.650412 -25.284551 -0.905925 -6.065414 16.974373 -0.499772 -0.582561 -2.849308 0.670280 -0.857114 5.040883 0.900866 -0.497422 6.862594 -4.364236 -3.413535 -11.388086 8.656764 -5.237079 12.426250 3.003392 -2.151511 5.980466 0.000000 0.000000 0.000000 1.584819 -4.289623 -22.311391 13.833010 -22.495504 2.763905 19.340031 -2.673075 -16.223454 0.000000 0.000000 0.000000 -7.125000 0.000000 0.000000 -8.028741 46.957607 0.390275 0.000000 0.000000 0.000000 -4.028273 -2.617553 17.936096 -14.595295 -23.579312 -3.062178 -20.601474 -3.335309 -5.089120 0.000000 0.000000 0.000000 7.125000 0.000000 0.000000 4.537498 24.545797 2.249203
49.589426 16.848947 -8.311402 -10.214394 -83.760518 11.694277 0.000000 0.000000 0.000000 -16.355994 0.802112 -2.787401 0.708460 5.379368 14.993918 0.376521 3.323763 -13.294766 0.193260 -2.830910 -7.808309 0.000000 0.000000 0.000000 19.462981 3.691526 -9.362280 -2.581232 -9.984224 28.925625 -1.687051 -1.592699 -25.167535 -0.902764 -6.055070 16.944406 -0.565476 -0.577624 -2.827874 0.666790 -0.846996 5.050766 0.934959 -0.496132 6.861525 -4.239247 -3.256513 -11.480335 8.547003 -5.020028 12.377817 2.966438 -2.046218 5.960124 0.000000 0.000000 0.000000 1.501400 -4.228787 -22.324561 13.816378 -22.471608 2.757503 19.278747 -2.710813 -16.156816 0.000000 0.000000 0.000000 -7.125000 0.000000 0.000000 -8.069186 46.880353 0.376775 0.000000 0.000000 0.000000 -4.173663 -2.688119 18.148861 -14.833377 -23.913493 -3.158090 -20.696121 -3.586654 -4.979778 0.000000 0.000000 0.000000 7.125000 0.000000 0.000000 4.468277 24.658861 2.202937
49.586979 16.851621 -8.239895 -11.464871 -84.312568 13.067648 0.000000 0.000000 0.000000 -16.648620 0.820295 -2.830792 0.715433 5.405417 15.068726 0.385833 3.692709 -13.679045 0.196146 -2.852030 -7.867210 0.000000 0.000000 0.000000 19.230506 4.160367 -9.337167 -2.568029 -9.960575 28.849004 -1.665187 -1.635117 -25.025186 -0.877991 -5.973633 16.707940 -0.595188 -0.561270 -2.778300 0.650216 -0.823579 5.067417 0.936783 -0.486241 6.850134 -4.027898 -3.054315 -11.560980 8.361032 -4.758932 12.479310 2.895587 -1.919462 5.978421 0.000000 0.000000 0.000000 1.442059 -4.267038 -22.251976 13.774329 -22.411158 2.741533 19.157219 -2.869373 -15.926497 0.000000 0.000000 0.000000 -7.125000 0.000000 0.000000 -8.124409 46.625697 0.328062 0.000000 0.000000 0.000000 -4.233562 -2.810284 18.095657 -14.993163 -24.136589 -3.223134 -20.991524 -3.924422 -4.910961 0.000000 0.000000 0.000000 7.125000 0.000000 0.000000 4.248122 24.721835 2.087619
49.579642 16.856229 -8.155739 -13.485165 -84.942744 15.234133 0.000000 0.000000 0.000000 -16.980654 0.759465 -2.786944 0.714426 5.401599 15.057690 0.394415 4.188671 -14.149589 0.194862 -2.842467 -7.840597 0.000000 0.000000 0.000000 18.997541 4.759816 -9.282823 -2.550677 -9.929419 28.748369 -1.642242 -1.778588 -24.914397 -0.847602 -5.872153 16.413911 -0.621361 -0.511168 -2.888427 0.634346 -0.753686 5.080232 0.939957 -0.453005 6.926297 -3.886533 -2.912728 -11.545219 8.190867 -4.581267 12.674667 2.835016 -1.836699 6.017997 0.000000 0.000000 0.000000 1.445606 -4.375717 -22.309191 13.779292 -22.418358 2.743372 19.037704 -2.965553 -15.897052 0.000000 0.000000 0.000000 -7.125000 0.000000 0.000000 -8.228332 46.579279 0.322832 0.000000 0.000000 0.000000 -4.210460 -2.831120 17.903636 -15.028395 -24.185651 -3.237534 -21.693353 -3.862855 -5.102853 0.000000 0.000000 0.000000 7.125000 0.000000 0.000000 3.721837 24.490991 1.847799
49.569850 16.860517 -8.068060 -14.875005 -85.538811 16.819413 0.000000 0.000000 0.000000 -17.417382 0.695016 -2.663683 0.693594 5.324094 14.835215 0.402600 4.673410 -14.620167 0.167089 -2.633687 -7.260550 0.000000 0.000000 0.000000 18.666003 5.380750 -9.305179 -2.547244 -9.923328 28.728905 -1.631022 -1.945340 -24.900744 -0.807761 -5.735804 16.019735 -0.788790 -0.476500 -3.086352 0.594777 -0.691861 5.069439 0.996456 -0.429917 7.029979 -3.820160 -2.832094 -11.512366 8.089205 -4.471688 12.719309 2.802044 -1.788083 6.015338 0.000000 0.000000 0.000000 1.505051 -4.506418 -22.449467 13.917018 -22.615930 2.796123 19.246699 -2.766601 -16.390394 0.000000 0.000000 0.000000 -7.125000 0.000000 0.000000 -8.158895 47.117750 0.429106 0.000000 0.000000 0.000000 -4.048059 -2.764543 17.530574 -14.981039 -24.119678 -3.218200 -22.320356 -3.408143 -5.306375 0.000000 0.000000 0.000000 7.125000 0.000000 0.000000 3.253544 24.247237 1.632872
49.564387 16.860287 -7.983199 -17.720472 -85.909365 19.816672 0.000000 0.000000 0.000000 -17.650796 0.681595 -2.714839 0.696981 5.336745 14.871471 0.428088 4.791936 -15.052841 0.136150 -2.378429 -6.552744 0.000000 0.000000 0.000000 18.479330 5.786396 -9.315137 -2.532075 -9.895999 28.640567 -1.619762 -2.057453 -24.864225 -0.790843 -5.676836 15.849676 -0.888183 -0.479519 -3.166412 0.609475 -0.689038 5.049850 1.067295 -0.433963 7.057093 -3.795357 -2.794444 -11.459498 8.013688 -4.395575 12.503542 2.780325 -1.759400 5.931330 0.000000 0.000000 0.000000 1.628652 -4.692710 -22.560139 13.985643 -22.714230 2.822556 19.236851 -2.806360 -16.377514 0.000000 0.000000 0.000000 -7.125000 0.000000 0.000000 -8.164730 47.103039 0.426494 0.000000 0.000000 0.000000 -3.878797 -2.616766 17.292428 -14.918348 -24.032241 -3.192580 -21.625894 -2.420143 -4.770824 0.000000 0.000000 0.000000 7.125000 0.000000 0.000000 3.774465 24.849483 1.842591
49.557048 16.860553 -7.911078 -19.688688 -85.928321 21.784883 0.000000 0.000000 0.000000 -17.769803 0.763510 -2.791250 0.713152 5.396865 15.043978 0.445946 4.664623 -15.192709 0.130379 -2.327265 -6.410937 0.000000 0.000000 0.000000 18.413839 6.011775 -9.058359 -2.495692 -9.830074 28.428249 -1.624130 -2.297615 -24.998699 -0.782706 -5.648196 15.766934 -1.040274 -0.500043 -3.215315 0.611494 -0.707352 5.098668 1.152360 -0.452417 7.140521 -3.826643 -2.820758 -11.461122 8.191168 -4.461469 12.569743 2.836356 -1.780138 5.961568 0.000000 0.000000 0.000000 1.848978 -5.092585 -22.747012 13.918901 -22.618612 2.796811 19.274934 -2.658904 -16.449822 0.000000 0.000000 0.000000 -7.125000 0.000000 0.000000 -8.147756 47.183124 0.441751 0.000000 0.000000 0.000000 -3.585742 -2.460970 16.781560 -14.670753 -23.685472 -3.092466 -21.073058 -1.642166 -4.467677 0.000000 0.000000 0.000000 7.125000 0.000000 0.000000 4.192864 25.192261 2.014451
49.552718 16.860218 -7.845603 -22.443122 -86.076773 24.525447 0.000000 0.000000 0.000000 -17.878937 0.935275 -2.893304 0.731629 5.464860 15.239370 0.461438 4.605761 -15.351122 0.127336 -2.299870 -6.335110 0.000000 0.000000 0.000000 18.328792 6.152761 -8.883288 -2.464334 -9.772733 28.243897 -1.611970 -2.356367 -24.933930 -0.779306 -5.636051 15.731983 -1.083251 -0.440792 -3.268513 0.552101 -0.622324 5.165562 1.121659 -0.412667 7.240265 -3.928305 -2.895025 -11.445725 8.336891 -4.569762 12.576873 2.890041 -1.827767 5.973970 0.000000 0.000000 0.000000 2.148525 -5.395067 -22.872967 14.104344 -22.883668 2.868586 19.259726 -2.818700 -16.348921 0.000000 0.000000 0.000000 -7.125000 0.000000 0.000000 -8.135992 47.076540 0.419580 0.000000 0.000000 0.000000 -3.262713 -2.399442 16.381032 -14.397008 -23.299372 -2.983320 -19.893630 -0.731989 -4.189352 0.000000 0.000000 0.000000 7.125000 0.000000 0.000000 5.085862 25.522778 2.407205
